# xmcd
#
# Track frame offsets:
#	150
#	14411
#	31958
#	41028
#	58170
#	75676
#	92034
#	105755
#	119146
#	135719
#	151792
#	167030
#	186195
#	199813
#	213377
#	223778
#	240090
#	255710
#	273031
#	287367
#	296511
#	317760
#
# Disc length: 4440 seconds
#
# Revision: 0
# Processed by: cddbd v1.5.2PL0 Copyright (c) Steve Scherf et al.
# Submitted via: EZCDAudioConverter 7.0.4.1
#
DISCID=36115616
DTITLE=Fleetwood Mac - Love That Burns The Blues Years [CD1)
DYEAR=2017
DGENRE=Blues Rock
TTITLE0=Albatross
TTITLE1=Need your Love so bad
TTITLE2=Long grey Mare
TTITLE3=Intro/Lazy Poker Blues
TTITLE4=My Baby´s Sweeter
TTITLE5=Talk to me Baby
TTITLE6=The Sun is shining
TTITLE7=Someone´s gonna get their Head kicked in tonight
TTITLE8=Do you give a Damn for me?
TTITLE9=Buzz me baby
TTITLE10=Fast talking Woman Blues
TTITLE11=Love that burns
TTITLE12=Man of the World
TTITLE13=Mind of my own
TTITLE14=Farewell
TTITLE15=How blue can you get?
TTITLE16=I have to laugh
TTITLE17=Leaving town Blues
TTITLE18=Like it this Way
TTITLE19=Tell me from the Start
TTITLE20=The green Manalishi (With the two Prong Crown)
TTITLE21=World in Harmony
EXTD=
EXTT0=
EXTT1=
EXTT2=
EXTT3=
EXTT4=
EXTT5=
EXTT6=
EXTT7=
EXTT8=
EXTT9=
EXTT10=
EXTT11=
EXTT12=
EXTT13=
EXTT14=
EXTT15=
EXTT16=
EXTT17=
EXTT18=
EXTT19=
EXTT20=
EXTT21=
PLAYORDER=
